<?xml version="1.0" encoding="UTF-8"?>
<svg version="1.1" xmlns="http://www.w3.org/2000/svg" width="578" height="578">
<path d="M0 0 C190.74 0 381.48 0 578 0 C578 190.74 578 381.48 578 578 C387.26 578 196.52 578 0 578 C0 387.26 0 196.52 0 0 Z " fill="#FEFEFE" transform="translate(0,0)"/>
<path d="M0 0 C0.78834229 0.00563965 1.57668457 0.0112793 2.38891602 0.01708984 C18.68336717 0.35135197 31.18988778 6.14711331 42.70703125 17.453125 C54.18290086 29.75230004 57.04619398 44.911408 56.50683594 61.14208984 C55.8388548 72.13903852 50.37933393 82.99201693 43.375 91.3125 C42.31152344 90.88517578 42.31152344 90.88517578 41.2265625 90.44921875 C39.35414197 89.7028155 37.47395439 88.97555437 35.5859375 88.26953125 C27.79612628 85.12570937 27.79612628 85.12570937 25.5625 80.8125 C24.9746875 79.08 24.9746875 79.08 24.375 77.3125 C21.2870934 73.92015191 17.98967003 71.57147684 13.32421875 71.109375 C8.23131656 71.00382262 4.72937254 71.37583015 0.375 74.3125 C-2.90702967 77.68569716 -4.36569558 80.79999249 -5.625 85.3125 C-4.635 85.3125 -3.645 85.3125 -2.625 85.3125 C-2.7075 84.590625 -2.79 83.86875 -2.875 83.125 C-2.54343965 79.39494603 -1.20643954 77.96564619 1.375 75.3125 C6.05193649 72.40713036 11.04676961 72.68791728 16.375 73.3125 C20.23684826 75.14179654 21.84515759 76.25281518 23.75 80.0625 C23.95625 80.805 24.1625 81.5475 24.375 82.3125 C19.59375 79.5234375 19.59375 79.5234375 17.625 77.625 C14.01889156 75.52143674 10.43792317 75.6595302 6.375 76.3125 C2.33423565 78.63379016 0.72787511 80.88490873 -0.625 85.3125 C5.50388779 84.96123963 9.87712926 84.19233706 15.375 81.3125 C19.32191492 81.71912872 22.39653709 83.98591846 25.71484375 86.0234375 C26.31881485 86.3922403 26.92278595 86.76104309 27.5450592 87.14102173 C29.47058242 88.3182959 31.39158223 89.50272936 33.3125 90.6875 C34.60061458 91.47704704 35.88902315 92.26611468 37.17773438 93.0546875 C39.55387096 94.50922559 41.92785676 95.96705643 44.30053711 97.42724609 C46.98265877 99.07191722 49.67386318 100.69930795 52.375 102.3125 C50.27060336 107.20756701 46.67381695 109.51125868 42.5 112.625 C41.77941406 113.18767578 41.05882812 113.75035156 40.31640625 114.33007812 C39.61644531 114.85666016 38.91648437 115.38324219 38.1953125 115.92578125 C37.55867676 116.40829346 36.92204102 116.89080566 36.26611328 117.38793945 C34.375 118.3125 34.375 118.3125 32.24316406 118.05249023 C29.89954147 117.12416822 28.70884299 115.90772952 27 114.0625 C26.39414063 113.43859375 25.78828125 112.8146875 25.1640625 112.171875 C24.05305005 111.0171983 22.94341234 109.86119513 21.8359375 108.703125 C20.21944027 107.08465421 20.21944027 107.08465421 17.375 105.3125 C15.73273264 105.50385254 14.09046656 105.70934896 12.46240234 105.99755859 C-3.35264896 108.38368914 -17.7951874 106.25251632 -31.09375 97.21484375 C-43.01013266 88.25916728 -50.03220938 75.9895469 -52.625 61.3125 C-54.09118941 47.12435105 -51.46985818 33.18151858 -42.6171875 21.7109375 C-31.43041861 8.80912391 -17.51068669 -0.1318434 0 0 Z " fill="#660322" transform="translate(143.625,229.6875)"/>
<path d="M0 0 C6.89638502 3.15390233 11.9925657 8.82109831 14.75 15.875 C17.12613042 24.73148613 16.50179787 34.19852956 12.75 42.5625 C8.79974896 49.37369043 3.74873303 53.97809634 -3.5625 56.875 C-11.73866842 58.39937038 -18.18819367 58.30498758 -25.25 53.5625 C-25.91 52.9025 -26.57 52.2425 -27.25 51.5625 C-27.58 60.1425 -27.91 68.7225 -28.25 77.5625 C-33.2 77.5625 -38.15 77.5625 -43.25 77.5625 C-43.25 51.8225 -43.25 26.0825 -43.25 -0.4375 C-38.63 -0.4375 -34.01 -0.4375 -29.25 -0.4375 C-29.25 1.8725 -29.25 4.1825 -29.25 6.5625 C-28.71890625 6.15257812 -28.1878125 5.74265625 -27.640625 5.3203125 C-26.58101563 4.51207031 -26.58101563 4.51207031 -25.5 3.6875 C-24.45585937 2.88699219 -24.45585937 2.88699219 -23.390625 2.0703125 C-16.30844245 -2.91823214 -8.11219618 -2.75010985 0 0 Z " fill="#040404" transform="translate(478.25,269.4375)"/>
<path d="M0 0 C0.88051025 0.00539795 1.76102051 0.0107959 2.66821289 0.01635742 C11.94474308 0.23177386 19.44404329 2.52499304 27.3125 7.4375 C26.67860765 10.93594386 25.26072306 13.27836876 23.25 16.1875 C22.70214844 16.98671875 22.15429688 17.7859375 21.58984375 18.609375 C21.16832031 19.21265625 20.74679687 19.8159375 20.3125 20.4375 C19.55324219 20.08816406 18.79398437 19.73882812 18.01171875 19.37890625 C17.01785156 18.92386719 16.02398437 18.46882813 15 18 C14.01386719 17.54753906 13.02773437 17.09507812 12.01171875 16.62890625 C7.95818224 14.83971864 4.8470584 14.25347843 0.4375 14.1875 C-0.59117187 14.16171875 -1.61984375 14.1359375 -2.6796875 14.109375 C-6.12869622 14.4856305 -7.97665888 15.28854231 -10.6875 17.4375 C-11.35416667 20.9375 -11.35416667 20.9375 -10.6875 24.4375 C-8.6882204 26.96386241 -6.86045212 27.94911266 -3.8125 28.875 C-3.01972656 29.12378906 -2.22695312 29.37257813 -1.41015625 29.62890625 C0.53793478 30.20746413 2.48879468 30.77673105 4.44140625 31.33984375 C22.82028066 36.74284225 22.82028066 36.74284225 27.4375 43.0625 C30.40199093 48.65388859 30.40501168 54.70368067 28.6484375 60.70703125 C25.85669464 67.05521175 20.95440879 71.41009362 14.6875 74.25 C3.22817678 78.2819841 -8.68515658 77.40141835 -19.6875 72.4375 C-29.15957207 67.49335586 -29.15957207 67.49335586 -30.6875 64.4375 C-29.25390625 61.8359375 -29.25390625 61.8359375 -27.25 58.8125 C-26.59128906 57.80960937 -25.93257812 56.80671875 -25.25390625 55.7734375 C-24.73699219 55.00257813 -24.22007812 54.23171875 -23.6875 53.4375 C-22.54474609 54.16066406 -22.54474609 54.16066406 -21.37890625 54.8984375 C-12.51510542 60.32073763 -5.12712432 63.29320691 5.3125 62.4375 C9.11031191 60.90336587 9.11031191 60.90336587 12.3125 58.4375 C12.35342937 56.10452567 12.35491723 53.77044775 12.3125 51.4375 C7.10624002 48.84814318 1.92457868 46.97138701 -3.6875 45.4375 C-13.38610039 42.74867551 -20.50597916 40.34930533 -26.5 31.875 C-28.44783724 26.23652377 -28.8134373 20.07669022 -27.03125 14.31640625 C-23.81360259 8.08914898 -18.11012831 3.65202041 -11.71948242 1.03955078 C-7.85974512 -0.10404073 -3.99791611 -0.04673925 0 0 Z " fill="#060606" transform="translate(241.6875,250.5625)"/>
<path d="M0 0 C4.60401929 4.10742488 7.75521235 7.77515332 8.12025452 14.07550049 C8.11803391 14.81274353 8.11581329 15.54998657 8.11352539 16.30957031 C8.11344986 17.15013977 8.11337433 17.99070923 8.11329651 18.85675049 C8.10813522 19.75480408 8.10297394 20.65285767 8.09765625 21.578125 C8.0962413 22.5046991 8.09482635 23.43127319 8.09336853 24.38592529 C8.08777824 27.34064992 8.0752275 30.29529833 8.0625 33.25 C8.05748375 35.25520724 8.05292106 37.26041567 8.04882812 39.265625 C8.03781199 44.17711263 8.020554 49.0885434 8 54 C3.05 54 -1.9 54 -7 54 C-7.33 52.35 -7.66 50.7 -8 49 C-8.51949219 49.34933594 -9.03898437 49.69867188 -9.57421875 50.05859375 C-16.64695527 54.67352165 -16.64695527 54.67352165 -21 55 C-22.85625 55.1546875 -22.85625 55.1546875 -24.75 55.3125 C-30.93176034 55.21883696 -36.2124425 52.83224643 -40.5 48.4375 C-43.82436474 43.03540729 -43.83695245 37.16156422 -43 31 C-40.43975429 25.92380348 -36.26919697 22.97594886 -31 21 C-25.8511587 19.87900602 -20.86310614 19.88319746 -15.625 19.9375 C-14.79355469 19.94201172 -13.96210938 19.94652344 -13.10546875 19.95117188 C-11.07028103 19.96286836 -9.03513077 19.98080065 -7 20 C-8.08901358 14.82467195 -8.08901358 14.82467195 -11.5 11.0625 C-20.0547386 8.46552578 -27.66910076 10.33918047 -36 13 C-36.72767003 11.76115681 -37.43154815 10.50831659 -38.125 9.25 C-38.51945312 8.55390625 -38.91390625 7.8578125 -39.3203125 7.140625 C-40 5 -40 5 -39.54296875 2.90625 C-31.45039211 -7.09166747 -9.80134852 -6.17948418 0 0 Z " fill="#080808" transform="translate(416,272)"/>
<path d="M0 0 C6.47033217 4.59874848 11.10962973 10.53703114 12.55078125 18.4921875 C13.48410912 33.22799867 13.48410912 33.22799867 9.55078125 39.4921875 C6.55078125 40.4921875 6.55078125 40.4921875 4.36328125 39.4296875 C2.55078125 37.4921875 2.55078125 37.4921875 2.30078125 34.3046875 C2.38328125 33.3765625 2.46578125 32.4484375 2.55078125 31.4921875 C-0.86564634 31.24202877 -0.86564634 31.24202877 -4.44921875 31.4921875 C-5.10921875 32.4821875 -5.76921875 33.4721875 -6.44921875 34.4921875 C-10.07421875 34.6796875 -10.07421875 34.6796875 -13.44921875 34.4921875 C-13.94421875 32.5121875 -13.94421875 32.5121875 -14.44921875 30.4921875 C-17.08921875 30.8221875 -19.72921875 31.1521875 -22.44921875 31.4921875 C-22.11921875 33.8021875 -21.78921875 36.1121875 -21.44921875 38.4921875 C-24.53810397 40.55144431 -25.15857802 40.7312249 -28.63671875 40.6171875 C-29.89484375 40.5759375 -31.15296875 40.5346875 -32.44921875 40.4921875 C-33.10921875 41.8121875 -33.76921875 43.1321875 -34.44921875 44.4921875 C-33.45921875 45.4821875 -32.46921875 46.4721875 -31.44921875 47.4921875 C-32.43921875 49.9671875 -32.43921875 49.9671875 -33.44921875 52.4921875 C-39.08670462 51.12552426 -42.24245829 47.05291349 -45.44921875 42.4921875 C-49.84681691 34.59194098 -49.73861246 24.20235966 -47.79296875 15.5859375 C-44.87564177 7.43754145 -39.95584276 1.5207308 -32.26171875 -2.4453125 C-21.06825784 -7.64542426 -10.41182073 -6.40982903 0 0 Z " fill="#FBFAFA" transform="translate(163.44921875,257.5078125)"/>
<path d="M0 0 C3.52193071 2.0318831 6.29899426 4.48130701 9.234375 7.2890625 C8.88951957 10.1733079 8.45182093 11.1098443 6.16796875 12.9921875 C4.93240234 13.75789063 4.93240234 13.75789063 3.671875 14.5390625 C2.84558594 15.05984375 2.01929688 15.580625 1.16796875 16.1171875 C0.21083984 16.69726562 0.21083984 16.69726562 -0.765625 17.2890625 C-1.425625 16.9590625 -2.085625 16.6290625 -2.765625 16.2890625 C-2.765625 15.6290625 -2.765625 14.9690625 -2.765625 14.2890625 C-3.549375 13.9796875 -4.333125 13.6703125 -5.140625 13.3515625 C-7.765625 12.2890625 -7.765625 12.2890625 -9.765625 11.2890625 C-14.85944728 10.90462308 -17.56707751 11.41005851 -21.765625 14.2890625 C-22.425625 14.2890625 -23.085625 14.2890625 -23.765625 14.2890625 C-24.075 15.0728125 -24.384375 15.8565625 -24.703125 16.6640625 C-25.765625 19.2890625 -25.765625 19.2890625 -26.765625 21.2890625 C-27.32332404 27.25215223 -27.26718948 32.21783118 -23.765625 37.2890625 C-19.82620031 40.99019457 -19.82620031 40.99019457 -14.8125 42.34375 C-8.83282317 41.87595215 -6.00855838 40.53199588 -1.765625 36.2890625 C2.90543292 37.84608181 6.32143185 40.37353623 10.234375 43.2890625 C6.59380937 49.81174258 1.56629418 53.51534905 -5.640625 55.6015625 C-15.12116271 57.53484862 -22.54466908 56.21279782 -30.890625 51.5390625 C-38.47797264 45.60113826 -42.70892947 38.55532839 -44.11328125 28.8984375 C-44.43475413 20.90354666 -41.74155953 13.50898067 -36.765625 7.2890625 C-26.73292397 -3.16275919 -13.41693682 -6.09462163 0 0 Z " fill="#070707" transform="translate(318.765625,270.7109375)"/>
<path d="M0 0 C0 4.95 0 9.9 0 15 C-2.041875 15.12375 -2.041875 15.12375 -4.125 15.25 C-8.70595597 15.79020707 -11.5392333 16.78643092 -15 20 C-18.80887616 27.4800821 -18.55349367 35.28994311 -18.6875 43.5 C-18.72072842 44.90888486 -18.75522305 46.31774045 -18.79101562 47.7265625 C-18.8731027 51.15076635 -18.93823738 54.57536927 -19 58 C-23.95 58 -28.9 58 -34 58 C-34 39.19 -34 20.38 -34 1 C-29.05 1 -24.1 1 -19 1 C-18.67 3.31 -18.34 5.62 -18 8 C-17.154375 7.236875 -16.30875 6.47375 -15.4375 5.6875 C-10.59015719 1.66329088 -6.34438179 0 0 0 Z " fill="#050505" transform="translate(370,268)"/>
<path d="M0 0 C3.62979059 2.35264205 7.04192716 5.08385432 9 9 C9.98019458 22.64732453 9.98019458 22.64732453 6 28 C1.61388914 31.95819761 -0.98934184 33.31222138 -6.97265625 33.21484375 C-11.26767456 32.75968767 -13.4922987 30.57821537 -16.25 27.4375 C-20.10748318 22.06457701 -19.55681692 16.43868577 -19 10 C-15.46374384 2.24743843 -8.47124731 -2.18198794 0 0 Z " fill="#FAFAFA" transform="translate(469,281)"/>
<path d="M0 0 C0.33 1.32 0.66 2.64 1 4 C4.43230448 3.73606499 4.43230448 3.73606499 8 3 C8.66 2.01 9.32 1.02 10 0 C12.31 0.33 14.62 0.66 17 1 C17.66 3.31 18.32 5.62 19 8 C21.37209967 8.76246061 22.6004415 9.13734824 25 8.3125 C27 8 27 8 29.3125 9.6875 C31 12 31 12 30.8125 14 C30.544375 14.66 30.27625 15.32 30 16 C29.7215625 17.11375 29.7215625 17.11375 29.4375 18.25 C29.293125 18.8275 29.14875 19.405 29 20 C29.66 20.37125 30.32 20.7425 31 21.125 C33 23 33 23 33.25 26.1875 C33.1675 27.115625 33.085 28.04375 33 29 C24.58196721 28.02868852 24.58196721 28.02868852 22 26 C21.28595196 24.27979336 20.57559866 22.55748218 19.9140625 20.81640625 C17.87877149 16.77191771 14.22704136 14.40901379 10 13 C4.30265311 12.43569136 -0.12785716 12.71413622 -5 16 C-7.92628626 19.08885772 -9.62325978 21.98450769 -11 26 C-13.76276177 25.47731534 -16.3260876 24.89130413 -19 24 C-18.773125 22.9275 -18.54625 21.855 -18.3125 20.75 C-17.64224175 17.07021424 -17.64224175 17.07021424 -19.4375 14.5625 C-19.953125 14.046875 -20.46875 13.53125 -21 13 C-20 11 -20 11 -18 9 C-15.28545044 8.67247766 -12.74769241 8.8691575 -10 9 C-9.34 8.67 -8.68 8.34 -8 8 C-8 5.69 -8 3.38 -8 1 C-5.07175348 0.02391783 -3.04386724 -0.08226668 0 0 Z " fill="#0A0909" transform="translate(149,288)"/>
<path d="M0 0 C0.93423645 3.01031744 1.04449911 3.86650268 0 7 C-1.61635924 24.99175049 1.68056751 40.15807565 13.375 54.25 C16.41556726 57.61026896 19.75417191 60.2314868 23.49609375 62.7734375 C23.99238281 63.17820312 24.48867187 63.58296875 25 64 C25 64.66 25 65.32 25 66 C22.14387362 66.62931598 19.88334382 67.11317798 17 67 C14.375 65 14.375 65 12 62 C11.29423828 61.27103516 11.29423828 61.27103516 10.57421875 60.52734375 C-1.19684374 48.14795762 -3.68906638 32.13063381 -3.3046875 15.76171875 C-3.04985287 10.2501032 -1.98598788 5.15411141 0 0 Z " fill="#363839" transform="translate(88,269)"/>
<path d="M0 0 C3.57547962 2.46310818 6.36900978 5.34158355 8.8125 8.9375 C8.8125 9.5975 8.8125 10.2575 8.8125 10.9375 C8.173125 11.06125 7.53375 11.185 6.875 11.3125 C6.194375 11.51875 5.51375 11.725 4.8125 11.9375 C4.4825 12.5975 4.1525 13.2575 3.8125 13.9375 C3.255625 13.421875 2.69875 12.90625 2.125 12.375 C-0.0898208 10.682969 -0.0898208 10.682969 -2.6875 11.125 C-5.1405649 11.82881757 -5.1405649 11.82881757 -7.015625 12.98046875 C-9.6451524 14.13916338 -11.57744363 14.13776464 -14.4375 14.0625 C-15.32953125 14.04445313 -16.2215625 14.02640625 -17.140625 14.0078125 C-18.15382812 13.97300781 -18.15382812 13.97300781 -19.1875 13.9375 C-18.32831765 10.5007706 -17.46268174 8.25437594 -15.125 5.5625 C-11.04085352 3.30318492 -7.74876457 2.89535677 -3.1875 3.9375 C-0.22428094 5.63497317 2.29760608 7.63503581 4.8125 9.9375 C2.89788176 6.29972535 1.66880563 4.41653841 -2.1875 2.9375 C-7.10227242 2.37350972 -11.67337577 2.28858962 -16.25 4.25 C-19.5650843 7.13733149 -20.50400695 9.7226262 -21.1875 13.9375 C-22.1775 13.9375 -23.1675 13.9375 -24.1875 13.9375 C-23.89967224 8.03703096 -21.3738372 4.8167709 -17.1875 0.9375 C-12.05413512 -2.2535106 -5.56852572 -1.85617524 0 0 Z " fill="#F1EFF0" transform="translate(162.1875,301.0625)"/>
<path d="M0 0 C1.11084961 0.02030273 1.11084961 0.02030273 2.24414062 0.04101562 C4.05891075 0.07614021 5.87330288 0.12994028 7.6875 0.1875 C7.87585616 8.20205479 7.87585616 8.20205479 4.6875 12.1875 C0.05181968 15.11044002 -5.01916947 14.82109562 -10.3125 14.1875 C-13.0625 12.625 -13.0625 12.625 -14.3125 10.1875 C-14.375 6.625 -14.375 6.625 -13.3125 3.1875 C-9.17646263 -0.25393567 -5.14239783 -0.17922566 0 0 Z " fill="#F6F6F6" transform="translate(401.3125,300.8125)"/>
<path d="M0 0 C1.97547779 1.85133574 3.39162037 3.79422222 5 6 C-2.14527565 9.1260581 -8.84330777 10.33382833 -16.5625 10.25 C-17.27857422 10.25773437 -17.99464844 10.26546875 -18.73242188 10.2734375 C-23.50960235 10.25605013 -27.46440278 9.50193233 -32 8 C-30.68 5.69 -29.36 3.38 -28 1 C-26.67484375 1.01160156 -25.3496875 1.02320313 -23.984375 1.03515625 C-22.23958474 1.04453684 -20.49479296 1.05363676 -18.75 1.0625 C-17.87730469 1.07087891 -17.00460938 1.07925781 -16.10546875 1.08789062 C-15.26113281 1.09111328 -14.41679687 1.09433594 -13.546875 1.09765625 C-12.38430176 1.10551147 -12.38430176 1.10551147 -11.19824219 1.11352539 C-7.26110756 0.91019714 -3.95648728 -0.67549783 0 0 Z " fill="#6C6F70" transform="translate(161,340)"/>
<path d="M0 0 C3.57547962 2.46310818 6.36900978 5.34158355 8.8125 8.9375 C8.8125 9.5975 8.8125 10.2575 8.8125 10.9375 C8.173125 11.06125 7.53375 11.185 6.875 11.3125 C6.194375 11.51875 5.51375 11.725 4.8125 11.9375 C4.4825 12.5975 4.1525 13.2575 3.8125 13.9375 C2.8225 12.9475 1.8325 11.9575 0.8125 10.9375 C2.1325 10.2775 3.4525 9.6175 4.8125 8.9375 C0.48499399 4.49611225 -1.30877746 2.78803406 -7.5 2.6875 C-11.88838506 2.72770772 -14.76139082 2.95346942 -18.1875 5.9375 C-20.1326 8.85515 -20.64026317 10.56287285 -21.1875 13.9375 C-22.1775 13.9375 -23.1675 13.9375 -24.1875 13.9375 C-23.89967224 8.03703096 -21.3738372 4.8167709 -17.1875 0.9375 C-12.05413512 -2.2535106 -5.56852572 -1.85617524 0 0 Z " fill="#D1D1D0" transform="translate(162.1875,301.0625)"/>
<path d="M0 0 C0.61875 0.66 1.2375 1.32 1.875 2 C5.27889171 5.44335712 9.14641031 8.29718626 12.98828125 11.23046875 C13.65214844 11.81441406 14.31601563 12.39835937 15 13 C15 13.66 15 14.32 15 15 C9.8778135 16.12861736 9.8778135 16.12861736 7 16 C4.25 13.8125 4.25 13.8125 2 11 C0.8553125 9.9171875 0.8553125 9.9171875 -0.3125 8.8125 C-2 7 -2 7 -2 5 C-1.34 4.67 -0.68 4.34 0 4 C0 2.68 0 1.36 0 0 Z " fill="#56585A" transform="translate(98,320)"/>
<path d="M0 0 C1.14726562 -0.00773437 2.29453125 -0.01546875 3.4765625 -0.0234375 C4.91128906 0.17378906 4.91128906 0.17378906 6.375 0.375 C7.035 1.365 7.695 2.355 8.375 3.375 C1.5872353 6.28404202 -4.32598553 6.50255559 -11.625 6.375 C-9.63372235 0.40116704 -5.8805993 -0.03982347 0 0 Z " fill="#45494B" transform="translate(157.625,342.625)"/>
<path d="M0 0 C3.3 0.33 6.6 0.66 10 1 C8 5 8 5 5 8 C9.95 8 14.9 8 20 8 C20 8.33 20 8.66 20 9 C17.31222198 9.0544207 14.62556788 9.09387266 11.9375 9.125 C11.18533203 9.14175781 10.43316406 9.15851563 9.65820312 9.17578125 C4.70672291 9.21865121 0.69585549 8.58399375 -4 7 C-2.68 4.69 -1.36 2.38 0 0 Z " fill="#9FA1A0" transform="translate(133,341)"/>
<path d="M0 0 C3.86184826 1.82929654 5.47015759 2.94031518 7.375 6.75 C7.58125 7.4925 7.7875 8.235 8 9 C3.21875 6.2109375 3.21875 6.2109375 1.25 4.3125 C-2.35610844 2.20893674 -5.93707683 2.3470302 -10 3 C-14.04076435 5.32129016 -15.64712489 7.57240873 -17 12 C-17.66 12 -18.32 12 -19 12 C-19.38937141 8.5930002 -19.15388085 7.23631702 -17.25 4.3125 C-12.26341977 -0.81259635 -6.8484917 -0.80278991 0 0 Z " fill="#171717" transform="translate(160,303)"/>
<path d="M0 0 C0.93423645 3.01031744 1.04449911 3.86650268 0 7 C-0.08239169 8.84610532 -0.10743359 10.69505164 -0.09765625 12.54296875 C-0.09443359 13.61611328 -0.09121094 14.68925781 -0.08789062 15.79492188 C-0.07951172 16.91447266 -0.07113281 18.03402344 -0.0625 19.1875 C-0.05798828 20.31865234 -0.05347656 21.44980469 -0.04882812 22.61523438 C-0.03703498 25.41020927 -0.0205765 28.2050782 0 31 C-0.99 31 -1.98 31 -3 31 C-3.57446809 9.27659574 -3.57446809 9.27659574 0 0 Z " fill="#6C6D6D" transform="translate(88,269)"/>
<path d="M0 0 C2.64 1.32 5.28 2.64 8 4 C7.67 4.99 7.34 5.98 7 7 C6.01 7 5.02 7 4 7 C4 6.34 4 5.68 4 5 C2.1128125 5.3403125 2.1128125 5.3403125 0.1875 5.6875 C-3.72231986 6.1995826 -3.72231986 6.1995826 -6 4.5625 C-6.33 4.046875 -6.66 3.53125 -7 3 C-3.535 2.505 -3.535 2.505 0 2 C0 1.34 0 0.68 0 0 Z " fill="#C8C8C6" transform="translate(113,333)"/>
<path d="M0 0 C0.99 0.33 1.98 0.66 3 1 C1.84826645 3.46800047 0.95216435 5.04783565 -1 7 C-5.39629018 6.76236269 -7.77258856 4.85856441 -11 2 C-10 1 -10 1 -6.9375 0.9375 C-5.4834375 0.9684375 -5.4834375 0.9684375 -4 1 C-4 1.66 -4 2.32 -4 3 C-3.01 2.67 -2.02 2.34 -1 2 C-0.67 1.34 -0.34 0.68 0 0 Z " fill="#E5E5E3" transform="translate(121,337)"/>
<path d="M0 0 C1.17219543 0.78345715 2.33763668 1.57702836 3.5 2.375 C4.1496875 2.81585938 4.799375 3.25671875 5.46875 3.7109375 C6.22671875 4.34902344 6.22671875 4.34902344 7 5 C7 5.66 7 6.32 7 7 C-0.625 8.25 -0.625 8.25 -4 6 C-4 5.34 -4 4.68 -4 4 C-3.01 4 -2.02 4 -1 4 C-0.67 2.68 -0.34 1.36 0 0 Z " fill="#9D9D9D" transform="translate(106,328)"/>
<path d="M0 0 C1.98 0 3.96 0 6 0 C3.375 5.75 3.375 5.75 0 8 C-0.99 7.67 -1.98 7.34 -3 7 C-2.67 5.35 -2.34 3.7 -2 2 C-1.34 2 -0.68 2 0 2 C0 1.34 0 0.68 0 0 Z " fill="#E7E9E8" transform="translate(128,340)"/>
<path d="M0 0 C1.75570312 0.04060547 1.75570312 0.04060547 3.546875 0.08203125 C4.43890625 0.11683594 5.3309375 0.15164063 6.25 0.1875 C6.25 0.5175 6.25 0.8475 6.25 1.1875 C5.40695313 1.38085938 4.56390625 1.57421875 3.6953125 1.7734375 C2.05175781 2.16402344 2.05175781 2.16402344 0.375 2.5625 C-0.71554688 2.81773437 -1.80609375 3.07296875 -2.9296875 3.3359375 C-5.85408455 3.97656215 -5.85408455 3.97656215 -7.75 6.1875 C-9.07 6.1875 -10.39 6.1875 -11.75 6.1875 C-9.71911347 0.09484042 -5.96172404 -0.17885172 0 0 Z " fill="#4F5355" transform="translate(157.75,342.8125)"/>
<path d="M0 0 C3.5371438 0.56132934 4.99261679 1.69557747 7.25 4.4375 C8.03117188 5.36369141 8.03117188 5.36369141 8.828125 6.30859375 C10 8 10 8 10 10 C9.360625 10.12375 8.72125 10.2475 8.0625 10.375 C7.381875 10.58125 6.70125 10.7875 6 11 C5.67 11.66 5.34 12.32 5 13 C4.01 12.01 3.02 11.02 2 10 C3.32 9.34 4.64 8.68 6 8 C5.566875 7.50628906 5.13375 7.01257813 4.6875 6.50390625 C4.130625 5.86324219 3.57375 5.22257812 3 4.5625 C2.443125 3.92441406 1.88625 3.28632813 1.3125 2.62890625 C0 1 0 1 0 0 Z " fill="#E2E5E4" transform="translate(161,302)"/>
<path d="M0 0 C0.99 0.33 1.98 0.66 3 1 C2.01 5.29 1.02 9.58 0 14 C-3 10 -3 10 -2.8125 6.4375 C-2 3 -2 3 0 0 Z " fill="#E7E3E4" transform="translate(92,261)"/>
<path d="M0 0 C1.65 0 3.3 0 5 0 C3.66666667 2.66666667 2.33333333 5.33333333 1 8 C-0.65 7.67 -2.3 7.34 -4 7 C-2.68 4.69 -1.36 2.38 0 0 Z " fill="#B5B6B5" transform="translate(133,341)"/>
<path d="M0 0 C0.66 0.33 1.32 0.66 2 1 C-1.3 4.3 -4.6 7.6 -8 11 C-8.33 10.34 -8.66 9.68 -9 9 C-7.87895467 7.68412059 -6.75303035 6.37239647 -5.625 5.0625 C-4.99851562 4.33160156 -4.37203125 3.60070312 -3.7265625 2.84765625 C-2 1 -2 1 0 0 Z " fill="#E7DADE" transform="translate(128,257)"/>
<path d="M0 0 C0.99 0 1.98 0 3 0 C1.75023244 3.65316671 1.32901247 4.78065836 -2 7 C-2.33 6.34 -2.66 5.68 -3 5 C-1.75 2.375 -1.75 2.375 0 0 Z " fill="#CFD0CF" transform="translate(130,341)"/>
<path d="M0 0 C2 1.375 2 1.375 4 3 C4 3.66 4 4.32 4 5 C1.36 5 -1.28 5 -4 5 C-3.01 4.67 -2.02 4.34 -1 4 C-0.26676204 1.98491642 -0.26676204 1.98491642 0 0 Z " fill="#818182" transform="translate(106,328)"/>
<path d="M0 0 C1.32 0.33 2.64 0.66 4 1 C3.38125 1.2475 2.7625 1.495 2.125 1.75 C-0.35068687 3.20628639 -0.95125002 4.37812506 -2 7 C-2.99 7 -3.98 7 -5 7 C-4.67 6.01 -4.34 5.02 -4 4 C-3.34 4 -2.68 4 -2 4 C-1.34 2.68 -0.68 1.36 0 0 Z " fill="#838585" transform="translate(143,342)"/>
<path d="M0 0 C0.99 0.33 1.98 0.66 3 1 C1.25 5.875 1.25 5.875 -1 7 C-1.04254356 5.00045254 -1.04080783 2.99958364 -1 1 C-0.67 0.67 -0.34 0.34 0 0 Z " fill="#F0EEEF" transform="translate(92,261)"/>
<path d="M0 0 C0.66 0.33 1.32 0.66 2 1 C0.6875 3.5 0.6875 3.5 -1 6 C-1.99 6 -2.98 6 -4 6 C-2.25 1.125 -2.25 1.125 0 0 Z " fill="#757778" transform="translate(145,343)"/>
<path d="M0 0 C0 0.66 0 1.32 0 2 C-0.639375 2.12375 -1.27875 2.2475 -1.9375 2.375 C-2.618125 2.58125 -3.29875 2.7875 -4 3 C-4.33 3.66 -4.66 4.32 -5 5 C-5.99 4.01 -6.98 3.02 -8 2 C-5.09399739 0.74335022 -3.20395416 0 0 0 Z " fill="#DBD7D8" transform="translate(171,310)"/>
<path d="M0 0 C1.875 0.1875 1.875 0.1875 4 1 C5.25 3.5625 5.25 3.5625 6 6 C1.125 3.375 1.125 3.375 0 0 Z " fill="#2C2E2E" transform="translate(162,306)"/>
<path d="M0 0 C0.86625 0.3403125 0.86625 0.3403125 1.75 0.6875 C-3.875 4.5625 -3.875 4.5625 -7.25 5.6875 C-5.99519591 1.92308774 -4.25905546 -0.59153548 0 0 Z " fill="#5A5D5F" transform="translate(153.25,343.3125)"/>
<path d="M0 0 C0.66 0.33 1.32 0.66 2 1 C1.67 2.32 1.34 3.64 1 5 C-0.65 4.67 -2.3 4.34 -4 4 C-2.68 2.68 -1.36 1.36 0 0 Z " fill="#696A6B" transform="translate(104,327)"/>
</svg>
